<?xml version="1.0" encoding="UTF-8" standalone="no"?>
<svg
   xmlns:dc="http://purl.org/dc/elements/1.1/"
   xmlns:cc="http://creativecommons.org/ns#"
   xmlns:rdf="http://www.w3.org/1999/02/22-rdf-syntax-ns#"
   xmlns:svg="http://www.w3.org/2000/svg"
   xmlns="http://www.w3.org/2000/svg"
   xmlns:sodipodi="http://sodipodi.sourceforge.net/DTD/sodipodi-0.dtd"
   xmlns:inkscape="http://www.inkscape.org/namespaces/inkscape"
   width="1715.7916"
   height="1680.7919"
   overflow="hidden"
   version="1.1"
   id="svg187"
   sodipodi:docname="overview.svg"
   inkscape:version="1.0.2 (e86c870879, 2021-01-15, custom)">
  <metadata
     id="metadata191">
    <rdf:RDF>
      <cc:Work
         rdf:about="">
        <dc:format>image/svg+xml</dc:format>
        <dc:type
           rdf:resource="http://purl.org/dc/dcmitype/StillImage" />
        <dc:title></dc:title>
      </cc:Work>
    </rdf:RDF>
  </metadata>
  <sodipodi:namedview
     pagecolor="#ffffff"
     bordercolor="#666666"
     borderopacity="1"
     objecttolerance="10"
     gridtolerance="10"
     guidetolerance="10"
     inkscape:pageopacity="0"
     inkscape:pageshadow="2"
     inkscape:window-width="713"
     inkscape:window-height="480"
     id="namedview189"
     showgrid="false"
     fit-margin-top="0"
     fit-margin-left="0"
     fit-margin-right="0"
     fit-margin-bottom="0"
     inkscape:zoom="0.51160024"
     inkscape:cx="858"
     inkscape:cy="840.29183"
     inkscape:window-x="0"
     inkscape:window-y="0"
     inkscape:window-maximized="0"
     inkscape:current-layer="svg187" />
  <defs
     id="defs5">
    <clipPath
       id="clip0">
      <rect
         x="1030"
         y="-2"
         width="1716"
         height="1681"
         id="rect2" />
    </clipPath>
  </defs>
  <g
     clip-path="url(#clip0)"
     transform="translate(-1030,1.7918291)"
     id="g185">
    <rect
       x="1031.5"
       y="296.5"
       width="1518"
       height="562"
       stroke="#000000"
       stroke-width="3.4375"
       stroke-miterlimit="8"
       fill="#d6dce5"
       id="rect7" />
    <text
       font-family="'Times New Roman', 'Times New Roman_MSFontService', sans-serif"
       font-weight="400"
       font-size="64px"
       transform="translate(1620.95,364)"
       id="text9">Optimization</text>
    <rect
       x="1155.5"
       y="587.5"
       width="1376"
       height="247"
       stroke="#000000"
       stroke-width="3.4375"
       stroke-miterlimit="8"
       fill="#4472c4"
       id="rect11" />
    <text
       fill="#ffffff"
       font-family="'Times New Roman', 'Times New Roman_MSFontService', sans-serif"
       font-weight="400"
       font-size="64px"
       transform="translate(1505.78,619)"
       id="text15">Machine learning pipeline<tspan
   fill="#000000"
   font-size="64px"
   x="-323.155"
   y="190"
   id="tspan13">Machine learning pipeline #3</tspan></text>
    <rect
       x="2072.5"
       y="889.5"
       width="455"
       height="788"
       stroke="#000000"
       stroke-width="3.4375"
       stroke-miterlimit="8"
       fill="#d6dce5"
       id="rect17" />
    <text
       font-family="'Times New Roman', 'Times New Roman_MSFontService', sans-serif"
       font-weight="400"
       font-size="64px"
       transform="translate(2107.1,952)"
       id="text19">Diversification</text>
    <path
       d="m 2637.5,1072 h -144 v 10.5 l -21,-21 21,-21 v 10.5 h 144 z"
       stroke="#4472c4"
       stroke-width="4.58333"
       stroke-miterlimit="8"
       fill="#4472c4"
       fill-rule="evenodd"
       id="path21" />
    <rect
       x="2143.5"
       y="1411.5"
       width="316"
       height="250"
       stroke="#000000"
       stroke-width="4.58333"
       stroke-miterlimit="8"
       stroke-dasharray="4.58333, 4.58333"
       fill="#ffffff"
       id="rect23" />
    <path
       d="m 2165.5,1486 c 0,-9.11 7.39,-16.5 16.5,-16.5 9.11,0 16.5,7.39 16.5,16.5 0,9.11 -7.39,16.5 -16.5,16.5 -9.11,0 -16.5,-7.39 -16.5,-16.5 z"
       stroke="#000000"
       stroke-width="4.58333"
       stroke-miterlimit="8"
       fill="#4472c4"
       fill-rule="evenodd"
       id="path25" />
    <path
       d="m 2217.5,1500 c 0,-9.11 7.39,-16.5 16.5,-16.5 9.11,0 16.5,7.39 16.5,16.5 0,9.11 -7.39,16.5 -16.5,16.5 -9.11,0 -16.5,-7.39 -16.5,-16.5 z"
       stroke="#000000"
       stroke-width="4.58333"
       stroke-miterlimit="8"
       fill="#4472c4"
       fill-rule="evenodd"
       id="path27" />
    <path
       d="m 2378.5,1478 c 0,-9.11 7.39,-16.5 16.5,-16.5 9.11,0 16.5,7.39 16.5,16.5 0,9.11 -7.39,16.5 -16.5,16.5 -9.11,0 -16.5,-7.39 -16.5,-16.5 z"
       stroke="#000000"
       stroke-width="4.58333"
       stroke-miterlimit="8"
       fill="#ff0000"
       fill-rule="evenodd"
       id="path29" />
    <path
       d="m 2326.5,1493 c 0,-9.11 7.39,-16.5 16.5,-16.5 9.11,0 16.5,7.39 16.5,16.5 0,9.11 -7.39,16.5 -16.5,16.5 -9.11,0 -16.5,-7.39 -16.5,-16.5 z"
       stroke="#000000"
       stroke-width="4.58333"
       stroke-miterlimit="8"
       fill="#ff0000"
       fill-rule="evenodd"
       id="path31" />
    <path
       d="m 2217.5,1445 c 0,-9.11 7.39,-16.5 16.5,-16.5 9.11,0 16.5,7.39 16.5,16.5 0,9.11 -7.39,16.5 -16.5,16.5 -9.11,0 -16.5,-7.39 -16.5,-16.5 z"
       stroke="#000000"
       stroke-width="4.58333"
       stroke-miterlimit="8"
       fill="#4472c4"
       fill-rule="evenodd"
       id="path33" />
    <path
       d="m 2370.5,1519 c 0,-9.11 7.39,-16.5 16.5,-16.5 9.11,0 16.5,7.39 16.5,16.5 0,9.11 -7.39,16.5 -16.5,16.5 -9.11,0 -16.5,-7.39 -16.5,-16.5 z"
       stroke="#000000"
       stroke-width="4.58333"
       stroke-miterlimit="8"
       fill="#ff0000"
       fill-rule="evenodd"
       id="path35" />
    <path
       d="m 2200.5,1606 c 0,-9.11 7.39,-16.5 16.5,-16.5 9.11,0 16.5,7.39 16.5,16.5 0,9.11 -7.39,16.5 -16.5,16.5 -9.11,0 -16.5,-7.39 -16.5,-16.5 z"
       stroke="#000000"
       stroke-width="4.58333"
       stroke-miterlimit="8"
       fill="#92d050"
       fill-rule="evenodd"
       id="path37" />
    <path
       d="m 2250.5,1589 c 0,-9.11 7.39,-16.5 16.5,-16.5 9.11,0 16.5,7.39 16.5,16.5 0,9.11 -7.39,16.5 -16.5,16.5 -9.11,0 -16.5,-7.39 -16.5,-16.5 z"
       stroke="#000000"
       stroke-width="4.58333"
       stroke-miterlimit="8"
       fill="#92d050"
       fill-rule="evenodd"
       id="path39" />
    <path
       d="m 2239.5,1634 c 0,-9.11 7.39,-16.5 16.5,-16.5 9.11,0 16.5,7.39 16.5,16.5 0,9.11 -7.39,16.5 -16.5,16.5 -9.11,0 -16.5,-7.39 -16.5,-16.5 z"
       stroke="#000000"
       stroke-width="4.58333"
       stroke-miterlimit="8"
       fill="#92d050"
       fill-rule="evenodd"
       id="path41" />
    <rect
       x="2138.5"
       y="1138.5"
       width="315"
       height="250"
       stroke="#000000"
       stroke-width="4.58333"
       stroke-miterlimit="8"
       stroke-dasharray="4.58333, 4.58333"
       fill="#ffffff"
       id="rect43" />
    <path
       d="m 2159.5,1213 c 0,-9.11 7.39,-16.5 16.5,-16.5 9.11,0 16.5,7.39 16.5,16.5 0,9.11 -7.39,16.5 -16.5,16.5 -9.11,0 -16.5,-7.39 -16.5,-16.5 z"
       stroke="#000000"
       stroke-width="4.58333"
       stroke-miterlimit="8"
       fill="#4472c4"
       fill-rule="evenodd"
       id="path45" />
    <path
       d="m 2211.5,1226 c 0,-9.11 7.39,-16.5 16.5,-16.5 9.11,0 16.5,7.39 16.5,16.5 0,9.11 -7.39,16.5 -16.5,16.5 -9.11,0 -16.5,-7.39 -16.5,-16.5 z"
       stroke="#000000"
       stroke-width="4.58333"
       stroke-miterlimit="8"
       fill="#4472c4"
       fill-rule="evenodd"
       id="path47" />
    <path
       d="m 2372.5,1205 c 0,-9.11 7.39,-16.5 16.5,-16.5 9.11,0 16.5,7.39 16.5,16.5 0,9.11 -7.39,16.5 -16.5,16.5 -9.11,0 -16.5,-7.39 -16.5,-16.5 z"
       stroke="#000000"
       stroke-width="4.58333"
       stroke-miterlimit="8"
       fill="#4472c4"
       fill-rule="evenodd"
       id="path49" />
    <path
       d="m 2320.5,1219 c 0,-9.11 7.39,-16.5 16.5,-16.5 9.11,0 16.5,7.39 16.5,16.5 0,9.11 -7.39,16.5 -16.5,16.5 -9.11,0 -16.5,-7.39 -16.5,-16.5 z"
       stroke="#000000"
       stroke-width="4.58333"
       stroke-miterlimit="8"
       fill="#4472c4"
       fill-rule="evenodd"
       id="path51" />
    <path
       d="m 2212.5,1172 c 0,-9.11 7.39,-16.5 16.5,-16.5 9.11,0 16.5,7.39 16.5,16.5 0,9.11 -7.39,16.5 -16.5,16.5 -9.11,0 -16.5,-7.39 -16.5,-16.5 z"
       stroke="#000000"
       stroke-width="4.58333"
       stroke-miterlimit="8"
       fill="#4472c4"
       fill-rule="evenodd"
       id="path53" />
    <path
       d="m 2365.5,1246 c 0,-9.11 7.39,-16.5 16.5,-16.5 9.11,0 16.5,7.39 16.5,16.5 0,9.11 -7.39,16.5 -16.5,16.5 -9.11,0 -16.5,-7.39 -16.5,-16.5 z"
       stroke="#000000"
       stroke-width="4.58333"
       stroke-miterlimit="8"
       fill="#4472c4"
       fill-rule="evenodd"
       id="path55" />
    <path
       d="m 2194.5,1333 c 0,-9.11 7.39,-16.5 16.5,-16.5 9.11,0 16.5,7.39 16.5,16.5 0,9.11 -7.39,16.5 -16.5,16.5 -9.11,0 -16.5,-7.39 -16.5,-16.5 z"
       stroke="#000000"
       stroke-width="4.58333"
       stroke-miterlimit="8"
       fill="#ffc000"
       fill-rule="evenodd"
       id="path57" />
    <path
       d="m 2244.5,1316 c 0,-9.11 7.39,-16.5 16.5,-16.5 9.11,0 16.5,7.39 16.5,16.5 0,9.11 -7.39,16.5 -16.5,16.5 -9.11,0 -16.5,-7.39 -16.5,-16.5 z"
       stroke="#000000"
       stroke-width="4.58333"
       stroke-miterlimit="8"
       fill="#ffc000"
       fill-rule="evenodd"
       id="path59" />
    <path
       d="m 2234.5,1361 c 0,-9.11 7.39,-16.5 16.5,-16.5 9.11,0 16.5,7.39 16.5,16.5 0,9.11 -7.39,16.5 -16.5,16.5 -9.11,0 -16.5,-7.39 -16.5,-16.5 z"
       stroke="#000000"
       stroke-width="4.58333"
       stroke-miterlimit="8"
       fill="#ffc000"
       fill-rule="evenodd"
       id="path61" />
    <rect
       x="2138.5"
       y="972.5"
       width="316"
       height="144"
       stroke="#000000"
       stroke-width="4.58333"
       stroke-miterlimit="8"
       stroke-dasharray="4.58333, 4.58333"
       fill="#ffffff"
       id="rect63" />
    <path
       d="m 2160.5,1037 c 0,-9.11 7.39,-16.5 16.5,-16.5 9.11,0 16.5,7.39 16.5,16.5 0,9.11 -7.39,16.5 -16.5,16.5 -9.11,0 -16.5,-7.39 -16.5,-16.5 z"
       stroke="#000000"
       stroke-width="4.58333"
       stroke-miterlimit="8"
       fill="#7030a0"
       fill-rule="evenodd"
       id="path65" />
    <path
       d="m 2211.5,1037 c 0,-9.11 7.39,-16.5 16.5,-16.5 9.11,0 16.5,7.39 16.5,16.5 0,9.11 -7.39,16.5 -16.5,16.5 -9.11,0 -16.5,-7.39 -16.5,-16.5 z"
       stroke="#000000"
       stroke-width="4.58333"
       stroke-miterlimit="8"
       fill="#7030a0"
       fill-rule="evenodd"
       id="path67" />
    <path
       d="m 2373.5,1037 c 0,-9.11 7.39,-16.5 16.5,-16.5 9.11,0 16.5,7.39 16.5,16.5 0,9.11 -7.39,16.5 -16.5,16.5 -9.11,0 -16.5,-7.39 -16.5,-16.5 z"
       stroke="#000000"
       stroke-width="4.58333"
       stroke-miterlimit="8"
       fill="#ed7d31"
       fill-rule="evenodd"
       id="path69" />
    <path
       d="m 2321.5,1037 c 0,-9.11 7.39,-16.5 16.5,-16.5 9.11,0 16.5,7.39 16.5,16.5 0,9.11 -7.39,16.5 -16.5,16.5 -9.11,0 -16.5,-7.39 -16.5,-16.5 z"
       stroke="#000000"
       stroke-width="4.58333"
       stroke-miterlimit="8"
       fill="#ed7d31"
       fill-rule="evenodd"
       id="path71" />
    <path
       d="m 2212.5,1037 c 0,-9.11 7.39,-16.5 16.5,-16.5 9.11,0 16.5,7.39 16.5,16.5 0,9.11 -7.39,16.5 -16.5,16.5 -9.11,0 -16.5,-7.39 -16.5,-16.5 z"
       stroke="#000000"
       stroke-width="4.58333"
       stroke-miterlimit="8"
       fill="#7030a0"
       fill-rule="evenodd"
       id="path73" />
    <path
       d="m 2365.5,1037 c 0,-9.11 7.39,-16.5 16.5,-16.5 9.11,0 16.5,7.39 16.5,16.5 0,9.11 -7.39,16.5 -16.5,16.5 -9.11,0 -16.5,-7.39 -16.5,-16.5 z"
       stroke="#000000"
       stroke-width="4.58333"
       stroke-miterlimit="8"
       fill="#ed7d31"
       fill-rule="evenodd"
       id="path75" />
    <path
       d="m 2195.5,1037 c 0,-9.11 7.39,-16.5 16.5,-16.5 9.11,0 16.5,7.39 16.5,16.5 0,9.11 -7.39,16.5 -16.5,16.5 -9.11,0 -16.5,-7.39 -16.5,-16.5 z"
       stroke="#000000"
       stroke-width="4.58333"
       stroke-miterlimit="8"
       fill="#7030a0"
       fill-rule="evenodd"
       id="path77" />
    <path
       d="m 2244.5,1037 c 0,-9.11 7.39,-16.5 16.5,-16.5 9.11,0 16.5,7.39 16.5,16.5 0,9.11 -7.39,16.5 -16.5,16.5 -9.11,0 -16.5,-7.39 -16.5,-16.5 z"
       stroke="#000000"
       stroke-width="4.58333"
       stroke-miterlimit="8"
       fill="#7030a0"
       fill-rule="evenodd"
       id="path79" />
    <path
       d="m 2234.5,1037 c 0,-9.11 7.39,-16.5 16.5,-16.5 9.11,0 16.5,7.39 16.5,16.5 0,9.11 -7.39,16.5 -16.5,16.5 -9.11,0 -16.5,-7.39 -16.5,-16.5 z"
       stroke="#000000"
       stroke-width="4.58333"
       stroke-miterlimit="8"
       fill="#7030a0"
       fill-rule="evenodd"
       id="path81" />
    <path
       d="m 1800,219.5 v 41 h 12.5 l -25,25 -25,-25 h 12.5 v -41 z"
       stroke="#000000"
       stroke-width="4.58333"
       stroke-miterlimit="8"
       fill="#ffffff"
       fill-rule="evenodd"
       id="path83" />
    <path
       d="m 2031.5,1314 h -272 v 12.5 l -25,-25 25,-25 v 12.5 h 272 z"
       stroke="#000000"
       stroke-width="4.58333"
       stroke-miterlimit="8"
       fill="#ffffff"
       fill-rule="evenodd"
       id="path85" />
    <rect
       x="1399.5"
       y="1025.5"
       width="316"
       height="249"
       stroke="#000000"
       stroke-width="4.58333"
       stroke-miterlimit="8"
       stroke-dasharray="4.58333, 4.58333"
       fill="none"
       id="rect87" />
    <path
       d="m 1421.5,1099 c 0,-9.11 7.39,-16.5 16.5,-16.5 9.11,0 16.5,7.39 16.5,16.5 0,9.11 -7.39,16.5 -16.5,16.5 -9.11,0 -16.5,-7.39 -16.5,-16.5 z"
       stroke="#000000"
       stroke-width="4.58333"
       stroke-miterlimit="8"
       fill="#4472c4"
       fill-rule="evenodd"
       id="path89" />
    <path
       d="m 1472.5,1113 c 0,-9.11 7.39,-16.5 16.5,-16.5 9.11,0 16.5,7.39 16.5,16.5 0,9.11 -7.39,16.5 -16.5,16.5 -9.11,0 -16.5,-7.39 -16.5,-16.5 z"
       stroke="#000000"
       stroke-width="4.58333"
       stroke-miterlimit="8"
       fill="#4472c4"
       fill-rule="evenodd"
       id="path91" />
    <path
       d="m 1634.5,1091 c 0,-9.11 7.39,-16.5 16.5,-16.5 9.11,0 16.5,7.39 16.5,16.5 0,9.11 -7.39,16.5 -16.5,16.5 -9.11,0 -16.5,-7.39 -16.5,-16.5 z"
       stroke="#000000"
       stroke-width="4.58333"
       stroke-miterlimit="8"
       fill="#ff0000"
       fill-rule="evenodd"
       id="path93" />
    <path
       d="m 1582.5,1106 c 0,-9.11 7.39,-16.5 16.5,-16.5 9.11,0 16.5,7.39 16.5,16.5 0,9.11 -7.39,16.5 -16.5,16.5 -9.11,0 -16.5,-7.39 -16.5,-16.5 z"
       stroke="#000000"
       stroke-width="4.58333"
       stroke-miterlimit="8"
       fill="#ff0000"
       fill-rule="evenodd"
       id="path95" />
    <path
       d="m 1473.5,1058 c 0,-9.11 7.39,-16.5 16.5,-16.5 9.11,0 16.5,7.39 16.5,16.5 0,9.11 -7.39,16.5 -16.5,16.5 -9.11,0 -16.5,-7.39 -16.5,-16.5 z"
       stroke="#000000"
       stroke-width="4.58333"
       stroke-miterlimit="8"
       fill="#4472c4"
       fill-rule="evenodd"
       id="path97" />
    <path
       d="m 1626.5,1132 c 0,-9.11 7.39,-16.5 16.5,-16.5 9.11,0 16.5,7.39 16.5,16.5 0,9.11 -7.39,16.5 -16.5,16.5 -9.11,0 -16.5,-7.39 -16.5,-16.5 z"
       stroke="#000000"
       stroke-width="4.58333"
       stroke-miterlimit="8"
       fill="#ff0000"
       fill-rule="evenodd"
       id="path99" />
    <path
       d="m 1456.5,1219 c 0,-9.11 7.39,-16.5 16.5,-16.5 9.11,0 16.5,7.39 16.5,16.5 0,9.11 -7.39,16.5 -16.5,16.5 -9.11,0 -16.5,-7.39 -16.5,-16.5 z"
       stroke="#000000"
       stroke-width="4.58333"
       stroke-miterlimit="8"
       fill="#92d050"
       fill-rule="evenodd"
       id="path101" />
    <path
       d="m 1505.5,1203 c 0,-9.11 7.39,-16.5 16.5,-16.5 9.11,0 16.5,7.39 16.5,16.5 0,9.11 -7.39,16.5 -16.5,16.5 -9.11,0 -16.5,-7.39 -16.5,-16.5 z"
       stroke="#000000"
       stroke-width="4.58333"
       stroke-miterlimit="8"
       fill="#92d050"
       fill-rule="evenodd"
       id="path103" />
    <path
       d="m 1495.5,1247 c 0,-9.11 7.39,-16.5 16.5,-16.5 9.11,0 16.5,7.39 16.5,16.5 0,9.11 -7.39,16.5 -16.5,16.5 -9.11,0 -16.5,-7.39 -16.5,-16.5 z"
       stroke="#000000"
       stroke-width="4.58333"
       stroke-miterlimit="8"
       fill="#92d050"
       fill-rule="evenodd"
       id="path105" />
    <rect
       x="1398.5"
       y="1317.5"
       width="316"
       height="144"
       stroke="#000000"
       stroke-width="4.58333"
       stroke-miterlimit="8"
       stroke-dasharray="4.58333, 4.58333"
       fill="none"
       id="rect107" />
    <path
       d="m 1420.5,1382 c 0,-9.11 7.39,-16.5 16.5,-16.5 9.11,0 16.5,7.39 16.5,16.5 0,9.11 -7.39,16.5 -16.5,16.5 -9.11,0 -16.5,-7.39 -16.5,-16.5 z"
       stroke="#000000"
       stroke-width="4.58333"
       stroke-miterlimit="8"
       fill="#7030a0"
       fill-rule="evenodd"
       id="path109" />
    <path
       d="m 1472.5,1382 c 0,-9.11 7.39,-16.5 16.5,-16.5 9.11,0 16.5,7.39 16.5,16.5 0,9.11 -7.39,16.5 -16.5,16.5 -9.11,0 -16.5,-7.39 -16.5,-16.5 z"
       stroke="#000000"
       stroke-width="4.58333"
       stroke-miterlimit="8"
       fill="#7030a0"
       fill-rule="evenodd"
       id="path111" />
    <path
       d="m 1633.5,1382 c 0,-9.11 7.39,-16.5 16.5,-16.5 9.11,0 16.5,7.39 16.5,16.5 0,9.11 -7.39,16.5 -16.5,16.5 -9.11,0 -16.5,-7.39 -16.5,-16.5 z"
       stroke="#000000"
       stroke-width="4.58333"
       stroke-miterlimit="8"
       fill="#ed7d31"
       fill-rule="evenodd"
       id="path113" />
    <path
       d="m 1581.5,1382 c 0,-9.11 7.39,-16.5 16.5,-16.5 9.11,0 16.5,7.39 16.5,16.5 0,9.11 -7.39,16.5 -16.5,16.5 -9.11,0 -16.5,-7.39 -16.5,-16.5 z"
       stroke="#000000"
       stroke-width="4.58333"
       stroke-miterlimit="8"
       fill="#ed7d31"
       fill-rule="evenodd"
       id="path115" />
    <path
       d="m 1472.5,1382 c 0,-9.11 7.39,-16.5 16.5,-16.5 9.11,0 16.5,7.39 16.5,16.5 0,9.11 -7.39,16.5 -16.5,16.5 -9.11,0 -16.5,-7.39 -16.5,-16.5 z"
       stroke="#000000"
       stroke-width="4.58333"
       stroke-miterlimit="8"
       fill="#7030a0"
       fill-rule="evenodd"
       id="path117" />
    <path
       d="m 1625.5,1382 c 0,-9.11 7.39,-16.5 16.5,-16.5 9.11,0 16.5,7.39 16.5,16.5 0,9.11 -7.39,16.5 -16.5,16.5 -9.11,0 -16.5,-7.39 -16.5,-16.5 z"
       stroke="#000000"
       stroke-width="4.58333"
       stroke-miterlimit="8"
       fill="#ed7d31"
       fill-rule="evenodd"
       id="path119" />
    <path
       d="m 1455.5,1382 c 0,-9.11 7.39,-16.5 16.5,-16.5 9.11,0 16.5,7.39 16.5,16.5 0,9.11 -7.39,16.5 -16.5,16.5 -9.11,0 -16.5,-7.39 -16.5,-16.5 z"
       stroke="#000000"
       stroke-width="4.58333"
       stroke-miterlimit="8"
       fill="#7030a0"
       fill-rule="evenodd"
       id="path121" />
    <path
       d="m 1505.5,1382 c 0,-9.11 7.39,-16.5 16.5,-16.5 9.11,0 16.5,7.39 16.5,16.5 0,9.11 -7.39,16.5 -16.5,16.5 -9.11,0 -16.5,-7.39 -16.5,-16.5 z"
       stroke="#000000"
       stroke-width="4.58333"
       stroke-miterlimit="8"
       fill="#7030a0"
       fill-rule="evenodd"
       id="path123" />
    <path
       d="m 1495.5,1382 c 0,-9.11 7.39,-16.5 16.5,-16.5 9.11,0 16.5,7.39 16.5,16.5 0,9.11 -7.39,16.5 -16.5,16.5 -9.11,0 -16.5,-7.39 -16.5,-16.5 z"
       stroke="#000000"
       stroke-width="4.58333"
       stroke-miterlimit="8"
       fill="#7030a0"
       fill-rule="evenodd"
       id="path125" />
    <text
       font-family="'Times New Roman', 'Times New Roman_MSFontService', sans-serif"
       font-weight="400"
       font-size="55px"
       transform="translate(1796.49,1116)"
       id="text133">Diverse <tspan
   font-size="55px"
   x="-50.118801"
   y="66"
   id="tspan127">and</tspan><tspan
   font-size="55px"
   x="43.266701"
   y="66"
   id="tspan129">relevant</tspan><tspan
   font-size="55px"
   x="-33.801998"
   y="132"
   id="tspan131">clusterings</tspan></text>
    <rect
       x="1110.5"
       y="495.5"
       width="1375"
       height="248"
       stroke="#000000"
       stroke-width="3.4375"
       stroke-miterlimit="8"
       fill="#70ad47"
       id="rect135" />
    <text
       font-family="'Times New Roman', 'Times New Roman_MSFontService', sans-serif"
       font-weight="400"
       font-size="64px"
       transform="translate(1144.39,714)"
       id="text137">Machine learning pipeline #2</text>
    <rect
       x="1050.5"
       y="412.5"
       width="1376"
       height="241"
       stroke="#000000"
       stroke-width="3.4375"
       stroke-miterlimit="8"
       fill="#ed7d31"
       id="rect139" />
    <rect
       x="1086.5"
       y="430.5"
       width="569"
       height="134"
       stroke="#000000"
       stroke-width="3.4375"
       stroke-miterlimit="8"
       fill="#ffffff"
       id="rect141" />
    <text
       font-family="'Times New Roman', 'Times New Roman_MSFontService', sans-serif"
       font-weight="400"
       font-size="64px"
       transform="translate(1179.56,520)"
       id="text147">Pre<tspan
   font-size="64px"
   x="85.364601"
   y="0"
   id="tspan143">-</tspan><tspan
   font-size="64px"
   x="106.563"
   y="0"
   id="tspan145">processing</tspan></text>
    <rect
       x="1762.5"
       y="430.5"
       width="625"
       height="134"
       stroke="#000000"
       stroke-width="3.4375"
       stroke-miterlimit="8"
       fill="#ffffff"
       id="rect149" />
    <text
       font-family="'Times New Roman', 'Times New Roman_MSFontService', sans-serif"
       font-weight="400"
       font-size="64px"
       transform="translate(1869.95,520)"
       id="text157">Cluster <tspan
   font-size="64px"
   x="201.66701"
   y="0"
   id="tspan151">analysis</tspan><tspan
   font-size="64px"
   x="-789.711"
   y="107"
   id="tspan153">Machine learning</tspan><tspan
   font-size="64px"
   x="-322.211"
   y="107"
   id="tspan155">pipeline #1</tspan></text>
    <path
       d="m 1673.5,497 h 51 v -12.5 l 25,25 -25,25 V 522 h -51 z"
       stroke="#000000"
       stroke-width="3.4375"
       stroke-miterlimit="8"
       fill="#ffffff"
       fill-rule="evenodd"
       id="path159" />
    <rect
       x="2545.5"
       y="733.5"
       width="90"
       height="15.9998"
       stroke="#4472c4"
       stroke-width="4.58333"
       stroke-miterlimit="8"
       fill="#4472c4"
       id="rect161" />
    <rect
       x="0"
       y="0"
       width="330"
       height="17.0002"
       stroke="#4472c4"
       stroke-width="4.58333"
       stroke-miterlimit="8"
       fill="#4472c4"
       transform="matrix(0,1,1,0,2619.5,732.5)"
       id="rect163" />
    <path
       d="M 2687.5,1311.75 H 2494 v 10.75 l -21.5,-21.5 21.5,-21.5 v 10.75 h 193.5 z"
       stroke="#70ad47"
       stroke-width="4.58333"
       stroke-miterlimit="8"
       fill="#70ad47"
       fill-rule="evenodd"
       id="path165" />
    <rect
       x="2495.5"
       y="528.5"
       width="182"
       height="17.0002"
       stroke="#70ad47"
       stroke-width="4.58333"
       stroke-miterlimit="8"
       fill="#70ad47"
       id="rect167" />
    <rect
       x="0"
       y="0"
       width="776"
       height="16.9998"
       stroke="#70ad47"
       stroke-width="4.58333"
       stroke-miterlimit="8"
       fill="#70ad47"
       transform="matrix(0,1,1,0,2670.5,529.5)"
       id="rect169" />
    <rect
       x="0"
       y="0"
       width="1122"
       height="16.9998"
       stroke="#ed7d31"
       stroke-width="4.58333"
       stroke-miterlimit="8"
       fill="#ed7d31"
       transform="matrix(0,1,1,0,2725.5,423.5)"
       id="rect171" />
    <rect
       x="2439.5"
       y="424.5"
       width="297"
       height="15.9998"
       stroke="#ed7d31"
       stroke-width="4.58333"
       stroke-miterlimit="8"
       fill="#ed7d31"
       id="rect173" />
    <path
       d="M 2743.5,1560.75 H 2501 v 10.75 l -21.5,-21.5 21.5,-21.5 v 10.75 h 242.5 z"
       stroke="#ed7d31"
       stroke-width="4.58333"
       stroke-miterlimit="8"
       fill="#ed7d31"
       fill-rule="evenodd"
       id="path175" />
    <path
       d="m 1651.5,35.9999 c 0,-19.6062 60.89,-35.500064 136,-35.500064 75.11,0 136,15.893864 136,35.500064 V 178 c 0,19.606 -60.89,35.5 -136,35.5 -75.11,0 -136,-15.894 -136,-35.5 z"
       fill="#ffffff"
       fill-rule="evenodd"
       id="path177" />
    <path
       d="m 1923.5,35.9999 c 0,19.6061 -60.89,35.5 -136,35.5 -75.11,0 -136,-15.8939 -136,-35.5"
       stroke="#000000"
       stroke-width="4.58333"
       stroke-miterlimit="8"
       fill="none"
       fill-rule="evenodd"
       id="path179" />
    <path
       d="m 1651.5,35.9999 c 0,-19.6062 60.89,-35.500064 136,-35.500064 75.11,0 136,15.893864 136,35.500064 V 178 c 0,19.606 -60.89,35.5 -136,35.5 -75.11,0 -136,-15.894 -136,-35.5 z"
       stroke="#000000"
       stroke-width="4.58333"
       stroke-miterlimit="8"
       fill="none"
       fill-rule="evenodd"
       id="path181" />
    <text
       font-family="'Times New Roman', 'Times New Roman_MSFontService', sans-serif"
       font-weight="400"
       font-size="64px"
       transform="translate(1690.82,148)"
       id="text183">Dataset</text>
  </g>
</svg>
