<?xml version="1.0" encoding="utf-8" standalone="no"?>
<!DOCTYPE svg PUBLIC "-//W3C//DTD SVG 1.1//EN"
  "http://www.w3.org/Graphics/SVG/1.1/DTD/svg11.dtd">
<svg xmlns:xlink="http://www.w3.org/1999/xlink" width="288pt" height="144pt" viewBox="0 0 288 144" xmlns="http://www.w3.org/2000/svg" version="1.1">
 <metadata>
  <rdf:RDF xmlns:dc="http://purl.org/dc/elements/1.1/" xmlns:cc="http://creativecommons.org/ns#" xmlns:rdf="http://www.w3.org/1999/02/22-rdf-syntax-ns#">
   <cc:Work>
    <dc:type rdf:resource="http://purl.org/dc/dcmitype/StillImage"/>
    <dc:date>2024-05-07T08:09:05.256181</dc:date>
    <dc:format>image/svg+xml</dc:format>
    <dc:creator>
     <cc:Agent>
      <dc:title>Matplotlib v3.7.1, https://matplotlib.org/</dc:title>
     </cc:Agent>
    </dc:creator>
   </cc:Work>
  </rdf:RDF>
 </metadata>
 <defs>
  <style type="text/css">*{stroke-linejoin: round; stroke-linecap: butt}</style>
 </defs>
 <g id="figure_1">
  <g id="patch_1">
   <path d="M 0 144 
L 288 144 
L 288 0 
L 0 0 
z
" style="fill: #ffffff"/>
  </g>
  <g id="axes_1">
   <g id="patch_2">
    <path d="M 169.355785 102.04 
L 273.89157 102.04 
L 273.89157 28.32 
L 169.355785 28.32 
z
" style="fill: #ffffff"/>
   </g>
   <g id="PathCollection_1">
    <defs>
     <path id="m2940b8ad49" d="M 0 3 
C 0.795609 3 1.55874 2.683901 2.12132 2.12132 
C 2.683901 1.55874 3 0.795609 3 0 
C 3 -0.795609 2.683901 -1.55874 2.12132 -2.12132 
C 1.55874 -2.683901 0.795609 -3 0 -3 
C -0.795609 -3 -1.55874 -2.683901 -2.12132 -2.12132 
C -2.683901 -1.55874 -3 -0.795609 -3 0 
C -3 0.795609 -2.683901 1.55874 -2.12132 2.12132 
C -1.55874 2.683901 -0.795609 3 0 3 
z
" style="stroke: #1f77b4"/>
    </defs>
    <g clip-path="url(#p2a073b7b03)">
     <use xlink:href="#m2940b8ad49" x="231.483245" y="39.943332" style="fill: #1f77b4; stroke: #1f77b4"/>
     <use xlink:href="#m2940b8ad49" x="221.742592" y="35.96016" style="fill: #1f77b4; stroke: #1f77b4"/>
     <use xlink:href="#m2940b8ad49" x="232.887247" y="41.103132" style="fill: #1f77b4; stroke: #1f77b4"/>
     <use xlink:href="#m2940b8ad49" x="227.613971" y="41.502571" style="fill: #1f77b4; stroke: #1f77b4"/>
     <use xlink:href="#m2940b8ad49" x="232.137213" y="41.000283" style="fill: #1f77b4; stroke: #1f77b4"/>
     <use xlink:href="#m2940b8ad49" x="229.919729" y="44.355627" style="fill: #1f77b4; stroke: #1f77b4"/>
     <use xlink:href="#m2940b8ad49" x="220.178875" y="37.015197" style="fill: #1f77b4; stroke: #1f77b4"/>
     <use xlink:href="#m2940b8ad49" x="225.531467" y="41.351312" style="fill: #1f77b4; stroke: #1f77b4"/>
     <use xlink:href="#m2940b8ad49" x="232.584582" y="40.29522" style="fill: #1f77b4; stroke: #1f77b4"/>
     <use xlink:href="#m2940b8ad49" x="224.035768" y="42.008846" style="fill: #1f77b4; stroke: #1f77b4"/>
     <use xlink:href="#m2940b8ad49" x="228.959138" y="42.908826" style="fill: #1f77b4; stroke: #1f77b4"/>
     <use xlink:href="#m2940b8ad49" x="233.889027" y="38.673594" style="fill: #1f77b4; stroke: #1f77b4"/>
     <use xlink:href="#m2940b8ad49" x="227.70365" y="37.577934" style="fill: #1f77b4; stroke: #1f77b4"/>
     <use xlink:href="#m2940b8ad49" x="226.900527" y="41.88599" style="fill: #1f77b4; stroke: #1f77b4"/>
     <use xlink:href="#m2940b8ad49" x="227.513758" y="37.909732" style="fill: #1f77b4; stroke: #1f77b4"/>
     <use xlink:href="#m2940b8ad49" x="223.741052" y="38.447551" style="fill: #1f77b4; stroke: #1f77b4"/>
     <use xlink:href="#m2940b8ad49" x="223.896125" y="39.377674" style="fill: #1f77b4; stroke: #1f77b4"/>
     <use xlink:href="#m2940b8ad49" x="218.954476" y="37.03694" style="fill: #1f77b4; stroke: #1f77b4"/>
     <use xlink:href="#m2940b8ad49" x="225.787962" y="48.764253" style="fill: #1f77b4; stroke: #1f77b4"/>
     <use xlink:href="#m2940b8ad49" x="242.957315" y="41.372384" style="fill: #1f77b4; stroke: #1f77b4"/>
     <use xlink:href="#m2940b8ad49" x="228.967279" y="39.784482" style="fill: #1f77b4; stroke: #1f77b4"/>
     <use xlink:href="#m2940b8ad49" x="235.951904" y="35.886578" style="fill: #1f77b4; stroke: #1f77b4"/>
     <use xlink:href="#m2940b8ad49" x="233.157052" y="34.930676" style="fill: #1f77b4; stroke: #1f77b4"/>
     <use xlink:href="#m2940b8ad49" x="232.87561" y="38.593389" style="fill: #1f77b4; stroke: #1f77b4"/>
     <use xlink:href="#m2940b8ad49" x="217.409515" y="43.744828" style="fill: #1f77b4; stroke: #1f77b4"/>
     <use xlink:href="#m2940b8ad49" x="227.869994" y="37.576243" style="fill: #1f77b4; stroke: #1f77b4"/>
     <use xlink:href="#m2940b8ad49" x="227.582393" y="38.828029" style="fill: #1f77b4; stroke: #1f77b4"/>
     <use xlink:href="#m2940b8ad49" x="227.913343" y="32.896473" style="fill: #1f77b4; stroke: #1f77b4"/>
     <use xlink:href="#m2940b8ad49" x="227.098802" y="37.257451" style="fill: #1f77b4; stroke: #1f77b4"/>
     <use xlink:href="#m2940b8ad49" x="225.159898" y="41.260257" style="fill: #1f77b4; stroke: #1f77b4"/>
     <use xlink:href="#m2940b8ad49" x="226.118847" y="34.4061" style="fill: #1f77b4; stroke: #1f77b4"/>
     <use xlink:href="#m2940b8ad49" x="228.179204" y="41.715286" style="fill: #1f77b4; stroke: #1f77b4"/>
     <use xlink:href="#m2940b8ad49" x="229.725395" y="41.657953" style="fill: #1f77b4; stroke: #1f77b4"/>
     <use xlink:href="#m2940b8ad49" x="228.623161" y="41.324169" style="fill: #1f77b4; stroke: #1f77b4"/>
     <use xlink:href="#m2940b8ad49" x="219.029344" y="40.45276" style="fill: #1f77b4; stroke: #1f77b4"/>
     <use xlink:href="#m2940b8ad49" x="228.443097" y="44.687853" style="fill: #1f77b4; stroke: #1f77b4"/>
     <use xlink:href="#m2940b8ad49" x="225.402647" y="37.323903" style="fill: #1f77b4; stroke: #1f77b4"/>
     <use xlink:href="#m2940b8ad49" x="224.07318" y="41.680047" style="fill: #1f77b4; stroke: #1f77b4"/>
     <use xlink:href="#m2940b8ad49" x="229.846635" y="35.105916" style="fill: #1f77b4; stroke: #1f77b4"/>
     <use xlink:href="#m2940b8ad49" x="227.602825" y="36.1223" style="fill: #1f77b4; stroke: #1f77b4"/>
     <use xlink:href="#m2940b8ad49" x="220.142375" y="38.642234" style="fill: #1f77b4; stroke: #1f77b4"/>
     <use xlink:href="#m2940b8ad49" x="228.930844" y="37.655677" style="fill: #1f77b4; stroke: #1f77b4"/>
     <use xlink:href="#m2940b8ad49" x="234.605106" y="35.418285" style="fill: #1f77b4; stroke: #1f77b4"/>
     <use xlink:href="#m2940b8ad49" x="230.13282" y="37.360298" style="fill: #1f77b4; stroke: #1f77b4"/>
     <use xlink:href="#m2940b8ad49" x="232.621148" y="39.40269" style="fill: #1f77b4; stroke: #1f77b4"/>
     <use xlink:href="#m2940b8ad49" x="222.772043" y="37.984535" style="fill: #1f77b4; stroke: #1f77b4"/>
     <use xlink:href="#m2940b8ad49" x="232.250636" y="42.049987" style="fill: #1f77b4; stroke: #1f77b4"/>
     <use xlink:href="#m2940b8ad49" x="215.460033" y="44.466865" style="fill: #1f77b4; stroke: #1f77b4"/>
     <use xlink:href="#m2940b8ad49" x="222.218153" y="43.928843" style="fill: #1f77b4; stroke: #1f77b4"/>
     <use xlink:href="#m2940b8ad49" x="232.509862" y="45.176286" style="fill: #1f77b4; stroke: #1f77b4"/>
     <use xlink:href="#m2940b8ad49" x="232.270948" y="37.027173" style="fill: #1f77b4; stroke: #1f77b4"/>
     <use xlink:href="#m2940b8ad49" x="227.318141" y="42.038953" style="fill: #1f77b4; stroke: #1f77b4"/>
     <use xlink:href="#m2940b8ad49" x="229.949349" y="39.955624" style="fill: #1f77b4; stroke: #1f77b4"/>
     <use xlink:href="#m2940b8ad49" x="226.805712" y="37.995224" style="fill: #1f77b4; stroke: #1f77b4"/>
     <use xlink:href="#m2940b8ad49" x="218.825356" y="36.566804" style="fill: #1f77b4; stroke: #1f77b4"/>
     <use xlink:href="#m2940b8ad49" x="233.075639" y="40.98535" style="fill: #1f77b4; stroke: #1f77b4"/>
     <use xlink:href="#m2940b8ad49" x="242.046869" y="34.496781" style="fill: #1f77b4; stroke: #1f77b4"/>
     <use xlink:href="#m2940b8ad49" x="221.954397" y="48.629059" style="fill: #1f77b4; stroke: #1f77b4"/>
     <use xlink:href="#m2940b8ad49" x="229.753955" y="38.499584" style="fill: #1f77b4; stroke: #1f77b4"/>
     <use xlink:href="#m2940b8ad49" x="221.902795" y="44.450213" style="fill: #1f77b4; stroke: #1f77b4"/>
     <use xlink:href="#m2940b8ad49" x="220.703013" y="37.901231" style="fill: #1f77b4; stroke: #1f77b4"/>
     <use xlink:href="#m2940b8ad49" x="217.43603" y="42.791105" style="fill: #1f77b4; stroke: #1f77b4"/>
     <use xlink:href="#m2940b8ad49" x="228.338115" y="38.600242" style="fill: #1f77b4; stroke: #1f77b4"/>
     <use xlink:href="#m2940b8ad49" x="222.217852" y="40.099372" style="fill: #1f77b4; stroke: #1f77b4"/>
     <use xlink:href="#m2940b8ad49" x="231.321841" y="40.853667" style="fill: #1f77b4; stroke: #1f77b4"/>
     <use xlink:href="#m2940b8ad49" x="244.407647" y="36.557567" style="fill: #1f77b4; stroke: #1f77b4"/>
     <use xlink:href="#m2940b8ad49" x="226.551435" y="39.661559" style="fill: #1f77b4; stroke: #1f77b4"/>
     <use xlink:href="#m2940b8ad49" x="232.925556" y="41.816523" style="fill: #1f77b4; stroke: #1f77b4"/>
     <use xlink:href="#m2940b8ad49" x="217.781132" y="37.344928" style="fill: #1f77b4; stroke: #1f77b4"/>
     <use xlink:href="#m2940b8ad49" x="225.069738" y="36.601726" style="fill: #1f77b4; stroke: #1f77b4"/>
     <use xlink:href="#m2940b8ad49" x="228.119355" y="38.344937" style="fill: #1f77b4; stroke: #1f77b4"/>
     <use xlink:href="#m2940b8ad49" x="235.583473" y="40.750512" style="fill: #1f77b4; stroke: #1f77b4"/>
     <use xlink:href="#m2940b8ad49" x="221.942488" y="41.970139" style="fill: #1f77b4; stroke: #1f77b4"/>
     <use xlink:href="#m2940b8ad49" x="224.322192" y="40.360779" style="fill: #1f77b4; stroke: #1f77b4"/>
     <use xlink:href="#m2940b8ad49" x="218.412291" y="36.855669" style="fill: #1f77b4; stroke: #1f77b4"/>
     <use xlink:href="#m2940b8ad49" x="222.188308" y="41.47468" style="fill: #1f77b4; stroke: #1f77b4"/>
     <use xlink:href="#m2940b8ad49" x="227.673743" y="42.038172" style="fill: #1f77b4; stroke: #1f77b4"/>
     <use xlink:href="#m2940b8ad49" x="222.299691" y="38.384373" style="fill: #1f77b4; stroke: #1f77b4"/>
     <use xlink:href="#m2940b8ad49" x="223.704151" y="43.583144" style="fill: #1f77b4; stroke: #1f77b4"/>
     <use xlink:href="#m2940b8ad49" x="232.012911" y="43.370477" style="fill: #1f77b4; stroke: #1f77b4"/>
     <use xlink:href="#m2940b8ad49" x="231.723921" y="40.118155" style="fill: #1f77b4; stroke: #1f77b4"/>
     <use xlink:href="#m2940b8ad49" x="233.484642" y="40.210106" style="fill: #1f77b4; stroke: #1f77b4"/>
     <use xlink:href="#m2940b8ad49" x="218.457077" y="39.81987" style="fill: #1f77b4; stroke: #1f77b4"/>
     <use xlink:href="#m2940b8ad49" x="232.905971" y="43.543605" style="fill: #1f77b4; stroke: #1f77b4"/>
     <use xlink:href="#m2940b8ad49" x="231.08881" y="37.527715" style="fill: #1f77b4; stroke: #1f77b4"/>
     <use xlink:href="#m2940b8ad49" x="236.627604" y="39.270691" style="fill: #1f77b4; stroke: #1f77b4"/>
     <use xlink:href="#m2940b8ad49" x="235.324379" y="42.29417" style="fill: #1f77b4; stroke: #1f77b4"/>
     <use xlink:href="#m2940b8ad49" x="229.117805" y="39.345756" style="fill: #1f77b4; stroke: #1f77b4"/>
     <use xlink:href="#m2940b8ad49" x="221.976787" y="41.607546" style="fill: #1f77b4; stroke: #1f77b4"/>
     <use xlink:href="#m2940b8ad49" x="238.739764" y="42.660825" style="fill: #1f77b4; stroke: #1f77b4"/>
     <use xlink:href="#m2940b8ad49" x="222.14217" y="41.405135" style="fill: #1f77b4; stroke: #1f77b4"/>
     <use xlink:href="#m2940b8ad49" x="222.856474" y="37.891198" style="fill: #1f77b4; stroke: #1f77b4"/>
     <use xlink:href="#m2940b8ad49" x="216.717147" y="44.214338" style="fill: #1f77b4; stroke: #1f77b4"/>
     <use xlink:href="#m2940b8ad49" x="223.056175" y="42.573933" style="fill: #1f77b4; stroke: #1f77b4"/>
     <use xlink:href="#m2940b8ad49" x="224.969761" y="38.752882" style="fill: #1f77b4; stroke: #1f77b4"/>
     <use xlink:href="#m2940b8ad49" x="230.820984" y="31.670909" style="fill: #1f77b4; stroke: #1f77b4"/>
     <use xlink:href="#m2940b8ad49" x="233.91425" y="42.336783" style="fill: #1f77b4; stroke: #1f77b4"/>
     <use xlink:href="#m2940b8ad49" x="221.839329" y="35.890531" style="fill: #1f77b4; stroke: #1f77b4"/>
     <use xlink:href="#m2940b8ad49" x="226.002176" y="41.509822" style="fill: #1f77b4; stroke: #1f77b4"/>
     <use xlink:href="#m2940b8ad49" x="223.918264" y="37.338401" style="fill: #1f77b4; stroke: #1f77b4"/>
    </g>
   </g>
   <g id="PathCollection_2">
    <defs>
     <path id="me7cdcb8f1d" d="M 0 3 
C 0.795609 3 1.55874 2.683901 2.12132 2.12132 
C 2.683901 1.55874 3 0.795609 3 0 
C 3 -0.795609 2.683901 -1.55874 2.12132 -2.12132 
C 1.55874 -2.683901 0.795609 -3 0 -3 
C -0.795609 -3 -1.55874 -2.683901 -2.12132 -2.12132 
C -2.683901 -1.55874 -3 -0.795609 -3 0 
C -3 0.795609 -2.683901 1.55874 -2.12132 2.12132 
C -1.55874 2.683901 -0.795609 3 0 3 
z
" style="stroke: #ff7f0e"/>
    </defs>
    <g clip-path="url(#p2a073b7b03)">
     <use xlink:href="#me7cdcb8f1d" x="261.119322" y="93.42682" style="fill: #ff7f0e; stroke: #ff7f0e"/>
     <use xlink:href="#me7cdcb8f1d" x="252.268106" y="89.921732" style="fill: #ff7f0e; stroke: #ff7f0e"/>
     <use xlink:href="#me7cdcb8f1d" x="243.874025" y="92.168442" style="fill: #ff7f0e; stroke: #ff7f0e"/>
     <use xlink:href="#me7cdcb8f1d" x="252.045403" y="92.107024" style="fill: #ff7f0e; stroke: #ff7f0e"/>
     <use xlink:href="#me7cdcb8f1d" x="254.915486" y="87.679451" style="fill: #ff7f0e; stroke: #ff7f0e"/>
     <use xlink:href="#me7cdcb8f1d" x="252.908465" y="90.765952" style="fill: #ff7f0e; stroke: #ff7f0e"/>
     <use xlink:href="#me7cdcb8f1d" x="262.990337" y="97.212155" style="fill: #ff7f0e; stroke: #ff7f0e"/>
     <use xlink:href="#me7cdcb8f1d" x="249.787196" y="85.963176" style="fill: #ff7f0e; stroke: #ff7f0e"/>
     <use xlink:href="#me7cdcb8f1d" x="260.587205" y="87.663801" style="fill: #ff7f0e; stroke: #ff7f0e"/>
     <use xlink:href="#me7cdcb8f1d" x="256.432237" y="98.528944" style="fill: #ff7f0e; stroke: #ff7f0e"/>
     <use xlink:href="#me7cdcb8f1d" x="246.001757" y="91.141299" style="fill: #ff7f0e; stroke: #ff7f0e"/>
     <use xlink:href="#me7cdcb8f1d" x="265.478732" y="91.731781" style="fill: #ff7f0e; stroke: #ff7f0e"/>
     <use xlink:href="#me7cdcb8f1d" x="253.103263" y="87.746073" style="fill: #ff7f0e; stroke: #ff7f0e"/>
     <use xlink:href="#me7cdcb8f1d" x="258.988553" y="91.171074" style="fill: #ff7f0e; stroke: #ff7f0e"/>
     <use xlink:href="#me7cdcb8f1d" x="258.464569" y="86.444903" style="fill: #ff7f0e; stroke: #ff7f0e"/>
     <use xlink:href="#me7cdcb8f1d" x="254.909848" y="90.347536" style="fill: #ff7f0e; stroke: #ff7f0e"/>
     <use xlink:href="#me7cdcb8f1d" x="251.31815" y="93.929515" style="fill: #ff7f0e; stroke: #ff7f0e"/>
     <use xlink:href="#me7cdcb8f1d" x="257.945902" y="90.093375" style="fill: #ff7f0e; stroke: #ff7f0e"/>
     <use xlink:href="#me7cdcb8f1d" x="253.841023" y="92.043758" style="fill: #ff7f0e; stroke: #ff7f0e"/>
     <use xlink:href="#me7cdcb8f1d" x="250.501929" y="90.779444" style="fill: #ff7f0e; stroke: #ff7f0e"/>
     <use xlink:href="#me7cdcb8f1d" x="255.071526" y="83.533805" style="fill: #ff7f0e; stroke: #ff7f0e"/>
     <use xlink:href="#me7cdcb8f1d" x="249.721143" y="91.7152" style="fill: #ff7f0e; stroke: #ff7f0e"/>
     <use xlink:href="#me7cdcb8f1d" x="252.810497" y="91.763384" style="fill: #ff7f0e; stroke: #ff7f0e"/>
     <use xlink:href="#me7cdcb8f1d" x="256.401032" y="93.047684" style="fill: #ff7f0e; stroke: #ff7f0e"/>
     <use xlink:href="#me7cdcb8f1d" x="241.576659" y="92.295117" style="fill: #ff7f0e; stroke: #ff7f0e"/>
     <use xlink:href="#me7cdcb8f1d" x="250.052679" y="91.864024" style="fill: #ff7f0e; stroke: #ff7f0e"/>
     <use xlink:href="#me7cdcb8f1d" x="258.256332" y="92.487203" style="fill: #ff7f0e; stroke: #ff7f0e"/>
     <use xlink:href="#me7cdcb8f1d" x="263.772259" y="87.96742" style="fill: #ff7f0e; stroke: #ff7f0e"/>
     <use xlink:href="#me7cdcb8f1d" x="259.352473" y="87.24271" style="fill: #ff7f0e; stroke: #ff7f0e"/>
     <use xlink:href="#me7cdcb8f1d" x="260.153958" y="90.448216" style="fill: #ff7f0e; stroke: #ff7f0e"/>
     <use xlink:href="#me7cdcb8f1d" x="260.694529" y="89.70265" style="fill: #ff7f0e; stroke: #ff7f0e"/>
     <use xlink:href="#me7cdcb8f1d" x="261.018214" y="97.754586" style="fill: #ff7f0e; stroke: #ff7f0e"/>
     <use xlink:href="#me7cdcb8f1d" x="252.665979" y="96.24102" style="fill: #ff7f0e; stroke: #ff7f0e"/>
     <use xlink:href="#me7cdcb8f1d" x="255.090468" y="97.991488" style="fill: #ff7f0e; stroke: #ff7f0e"/>
     <use xlink:href="#me7cdcb8f1d" x="260.627676" y="88.398313" style="fill: #ff7f0e; stroke: #ff7f0e"/>
     <use xlink:href="#me7cdcb8f1d" x="257.729823" y="90.469616" style="fill: #ff7f0e; stroke: #ff7f0e"/>
     <use xlink:href="#me7cdcb8f1d" x="254.083136" y="90.927454" style="fill: #ff7f0e; stroke: #ff7f0e"/>
     <use xlink:href="#me7cdcb8f1d" x="259.90497" y="92.718991" style="fill: #ff7f0e; stroke: #ff7f0e"/>
     <use xlink:href="#me7cdcb8f1d" x="255.77272" y="87.093914" style="fill: #ff7f0e; stroke: #ff7f0e"/>
     <use xlink:href="#me7cdcb8f1d" x="259.571732" y="91.643906" style="fill: #ff7f0e; stroke: #ff7f0e"/>
     <use xlink:href="#me7cdcb8f1d" x="255.223939" y="85.918723" style="fill: #ff7f0e; stroke: #ff7f0e"/>
     <use xlink:href="#me7cdcb8f1d" x="257.989416" y="87.388228" style="fill: #ff7f0e; stroke: #ff7f0e"/>
     <use xlink:href="#me7cdcb8f1d" x="256.482077" y="90.22756" style="fill: #ff7f0e; stroke: #ff7f0e"/>
     <use xlink:href="#me7cdcb8f1d" x="256.809445" y="91.025545" style="fill: #ff7f0e; stroke: #ff7f0e"/>
     <use xlink:href="#me7cdcb8f1d" x="261.74252" y="92.265518" style="fill: #ff7f0e; stroke: #ff7f0e"/>
     <use xlink:href="#me7cdcb8f1d" x="252.979007" y="84.233666" style="fill: #ff7f0e; stroke: #ff7f0e"/>
     <use xlink:href="#me7cdcb8f1d" x="255.431631" y="92.637014" style="fill: #ff7f0e; stroke: #ff7f0e"/>
     <use xlink:href="#me7cdcb8f1d" x="254.449634" y="86.720011" style="fill: #ff7f0e; stroke: #ff7f0e"/>
     <use xlink:href="#me7cdcb8f1d" x="249.436634" y="92.021281" style="fill: #ff7f0e; stroke: #ff7f0e"/>
     <use xlink:href="#me7cdcb8f1d" x="252.425814" y="92.062759" style="fill: #ff7f0e; stroke: #ff7f0e"/>
     <use xlink:href="#me7cdcb8f1d" x="243.142271" y="89.601871" style="fill: #ff7f0e; stroke: #ff7f0e"/>
     <use xlink:href="#me7cdcb8f1d" x="251.023792" y="84.686483" style="fill: #ff7f0e; stroke: #ff7f0e"/>
     <use xlink:href="#me7cdcb8f1d" x="252.122395" y="84.852515" style="fill: #ff7f0e; stroke: #ff7f0e"/>
     <use xlink:href="#me7cdcb8f1d" x="247.484746" y="88.307241" style="fill: #ff7f0e; stroke: #ff7f0e"/>
     <use xlink:href="#me7cdcb8f1d" x="254.704321" y="89.47297" style="fill: #ff7f0e; stroke: #ff7f0e"/>
     <use xlink:href="#me7cdcb8f1d" x="251.7861" y="89.470746" style="fill: #ff7f0e; stroke: #ff7f0e"/>
     <use xlink:href="#me7cdcb8f1d" x="253.291133" y="88.043063" style="fill: #ff7f0e; stroke: #ff7f0e"/>
     <use xlink:href="#me7cdcb8f1d" x="254.997439" y="89.11944" style="fill: #ff7f0e; stroke: #ff7f0e"/>
     <use xlink:href="#me7cdcb8f1d" x="241.447702" y="88.051222" style="fill: #ff7f0e; stroke: #ff7f0e"/>
     <use xlink:href="#me7cdcb8f1d" x="249.622632" y="91.839958" style="fill: #ff7f0e; stroke: #ff7f0e"/>
     <use xlink:href="#me7cdcb8f1d" x="248.479518" y="90.213177" style="fill: #ff7f0e; stroke: #ff7f0e"/>
     <use xlink:href="#me7cdcb8f1d" x="254.452087" y="94.117321" style="fill: #ff7f0e; stroke: #ff7f0e"/>
     <use xlink:href="#me7cdcb8f1d" x="260.858608" y="95.928131" style="fill: #ff7f0e; stroke: #ff7f0e"/>
     <use xlink:href="#me7cdcb8f1d" x="262.632173" y="92.896754" style="fill: #ff7f0e; stroke: #ff7f0e"/>
     <use xlink:href="#me7cdcb8f1d" x="251.435727" y="98.689091" style="fill: #ff7f0e; stroke: #ff7f0e"/>
     <use xlink:href="#me7cdcb8f1d" x="249.441684" y="90.761934" style="fill: #ff7f0e; stroke: #ff7f0e"/>
     <use xlink:href="#me7cdcb8f1d" x="260.26405" y="87.404453" style="fill: #ff7f0e; stroke: #ff7f0e"/>
     <use xlink:href="#me7cdcb8f1d" x="245.931083" y="88.264971" style="fill: #ff7f0e; stroke: #ff7f0e"/>
     <use xlink:href="#me7cdcb8f1d" x="250.355213" y="83.032426" style="fill: #ff7f0e; stroke: #ff7f0e"/>
     <use xlink:href="#me7cdcb8f1d" x="259.809218" y="93.576829" style="fill: #ff7f0e; stroke: #ff7f0e"/>
     <use xlink:href="#me7cdcb8f1d" x="255.749161" y="93.98767" style="fill: #ff7f0e; stroke: #ff7f0e"/>
     <use xlink:href="#me7cdcb8f1d" x="257.108615" y="91.020773" style="fill: #ff7f0e; stroke: #ff7f0e"/>
     <use xlink:href="#me7cdcb8f1d" x="260.387584" y="92.410794" style="fill: #ff7f0e; stroke: #ff7f0e"/>
     <use xlink:href="#me7cdcb8f1d" x="255.978003" y="88.978242" style="fill: #ff7f0e; stroke: #ff7f0e"/>
     <use xlink:href="#me7cdcb8f1d" x="260.115465" y="91.186229" style="fill: #ff7f0e; stroke: #ff7f0e"/>
     <use xlink:href="#me7cdcb8f1d" x="255.164326" y="87.632254" style="fill: #ff7f0e; stroke: #ff7f0e"/>
     <use xlink:href="#me7cdcb8f1d" x="254.839272" y="91.510046" style="fill: #ff7f0e; stroke: #ff7f0e"/>
     <use xlink:href="#me7cdcb8f1d" x="256.365647" y="81.92261" style="fill: #ff7f0e; stroke: #ff7f0e"/>
     <use xlink:href="#me7cdcb8f1d" x="253.295569" y="92.204396" style="fill: #ff7f0e; stroke: #ff7f0e"/>
     <use xlink:href="#me7cdcb8f1d" x="253.03038" y="89.814361" style="fill: #ff7f0e; stroke: #ff7f0e"/>
     <use xlink:href="#me7cdcb8f1d" x="269.139944" y="91.736956" style="fill: #ff7f0e; stroke: #ff7f0e"/>
     <use xlink:href="#me7cdcb8f1d" x="251.351696" y="95.299756" style="fill: #ff7f0e; stroke: #ff7f0e"/>
     <use xlink:href="#me7cdcb8f1d" x="246.524142" y="87.476544" style="fill: #ff7f0e; stroke: #ff7f0e"/>
     <use xlink:href="#me7cdcb8f1d" x="257.701669" y="85.740017" style="fill: #ff7f0e; stroke: #ff7f0e"/>
     <use xlink:href="#me7cdcb8f1d" x="264.564085" y="87.792392" style="fill: #ff7f0e; stroke: #ff7f0e"/>
     <use xlink:href="#me7cdcb8f1d" x="252.843578" y="95.82317" style="fill: #ff7f0e; stroke: #ff7f0e"/>
     <use xlink:href="#me7cdcb8f1d" x="248.323318" y="92.378211" style="fill: #ff7f0e; stroke: #ff7f0e"/>
     <use xlink:href="#me7cdcb8f1d" x="248.063353" y="89.204804" style="fill: #ff7f0e; stroke: #ff7f0e"/>
     <use xlink:href="#me7cdcb8f1d" x="238.119344" y="92.206012" style="fill: #ff7f0e; stroke: #ff7f0e"/>
     <use xlink:href="#me7cdcb8f1d" x="252.388463" y="92.871347" style="fill: #ff7f0e; stroke: #ff7f0e"/>
     <use xlink:href="#me7cdcb8f1d" x="260.894569" y="92.14856" style="fill: #ff7f0e; stroke: #ff7f0e"/>
     <use xlink:href="#me7cdcb8f1d" x="252.032996" y="92.260093" style="fill: #ff7f0e; stroke: #ff7f0e"/>
     <use xlink:href="#me7cdcb8f1d" x="252.634334" y="88.121832" style="fill: #ff7f0e; stroke: #ff7f0e"/>
     <use xlink:href="#me7cdcb8f1d" x="256.575513" y="85.942681" style="fill: #ff7f0e; stroke: #ff7f0e"/>
     <use xlink:href="#me7cdcb8f1d" x="249.826588" y="93.620275" style="fill: #ff7f0e; stroke: #ff7f0e"/>
     <use xlink:href="#me7cdcb8f1d" x="267.158406" y="90.387193" style="fill: #ff7f0e; stroke: #ff7f0e"/>
     <use xlink:href="#me7cdcb8f1d" x="246.799523" y="96.821109" style="fill: #ff7f0e; stroke: #ff7f0e"/>
     <use xlink:href="#me7cdcb8f1d" x="245.497827" y="88.221426" style="fill: #ff7f0e; stroke: #ff7f0e"/>
     <use xlink:href="#me7cdcb8f1d" x="262.306355" y="87.688017" style="fill: #ff7f0e; stroke: #ff7f0e"/>
     <use xlink:href="#me7cdcb8f1d" x="265.755615" y="91.103306" style="fill: #ff7f0e; stroke: #ff7f0e"/>
    </g>
   </g>
   <g id="PathCollection_3">
    <defs>
     <path id="m4768366a7a" d="M 0 3 
C 0.795609 3 1.55874 2.683901 2.12132 2.12132 
C 2.683901 1.55874 3 0.795609 3 0 
C 3 -0.795609 2.683901 -1.55874 2.12132 -2.12132 
C 1.55874 -2.683901 0.795609 -3 0 -3 
C -0.795609 -3 -1.55874 -2.683901 -2.12132 -2.12132 
C -2.683901 -1.55874 -3 -0.795609 -3 0 
C -3 0.795609 -2.683901 1.55874 -2.12132 2.12132 
C -1.55874 2.683901 -0.795609 3 0 3 
z
" style="stroke: #2ca02c"/>
    </defs>
    <g clip-path="url(#p2a073b7b03)">
     <use xlink:href="#m4768366a7a" x="190.490543" y="44.303384" style="fill: #2ca02c; stroke: #2ca02c"/>
     <use xlink:href="#m4768366a7a" x="192.270088" y="46.207002" style="fill: #2ca02c; stroke: #2ca02c"/>
     <use xlink:href="#m4768366a7a" x="190.410739" y="44.786329" style="fill: #2ca02c; stroke: #2ca02c"/>
     <use xlink:href="#m4768366a7a" x="193.527233" y="47.193498" style="fill: #2ca02c; stroke: #2ca02c"/>
     <use xlink:href="#m4768366a7a" x="192.222301" y="42.986149" style="fill: #2ca02c; stroke: #2ca02c"/>
     <use xlink:href="#m4768366a7a" x="189.143022" y="47.79489" style="fill: #2ca02c; stroke: #2ca02c"/>
     <use xlink:href="#m4768366a7a" x="191.259267" y="46.899829" style="fill: #2ca02c; stroke: #2ca02c"/>
     <use xlink:href="#m4768366a7a" x="196.593329" y="47.873109" style="fill: #2ca02c; stroke: #2ca02c"/>
     <use xlink:href="#m4768366a7a" x="189.774231" y="46.118971" style="fill: #2ca02c; stroke: #2ca02c"/>
     <use xlink:href="#m4768366a7a" x="199.877363" y="49.643051" style="fill: #2ca02c; stroke: #2ca02c"/>
     <use xlink:href="#m4768366a7a" x="190.708226" y="40.483956" style="fill: #2ca02c; stroke: #2ca02c"/>
     <use xlink:href="#m4768366a7a" x="199.003141" y="40.724684" style="fill: #2ca02c; stroke: #2ca02c"/>
     <use xlink:href="#m4768366a7a" x="184.01717" y="45.373403" style="fill: #2ca02c; stroke: #2ca02c"/>
     <use xlink:href="#m4768366a7a" x="184.075678" y="45.73183" style="fill: #2ca02c; stroke: #2ca02c"/>
     <use xlink:href="#m4768366a7a" x="195.727855" y="51.556773" style="fill: #2ca02c; stroke: #2ca02c"/>
     <use xlink:href="#m4768366a7a" x="188.266448" y="44.031747" style="fill: #2ca02c; stroke: #2ca02c"/>
     <use xlink:href="#m4768366a7a" x="190.080737" y="48.187447" style="fill: #2ca02c; stroke: #2ca02c"/>
     <use xlink:href="#m4768366a7a" x="182.741981" y="56.745112" style="fill: #2ca02c; stroke: #2ca02c"/>
     <use xlink:href="#m4768366a7a" x="186.167572" y="46.23876" style="fill: #2ca02c; stroke: #2ca02c"/>
     <use xlink:href="#m4768366a7a" x="197.154876" y="51.265631" style="fill: #2ca02c; stroke: #2ca02c"/>
     <use xlink:href="#m4768366a7a" x="187.881991" y="42.124683" style="fill: #2ca02c; stroke: #2ca02c"/>
     <use xlink:href="#m4768366a7a" x="181.174175" y="46.423122" style="fill: #2ca02c; stroke: #2ca02c"/>
     <use xlink:href="#m4768366a7a" x="192.715854" y="43.981845" style="fill: #2ca02c; stroke: #2ca02c"/>
     <use xlink:href="#m4768366a7a" x="192.213912" y="49.011862" style="fill: #2ca02c; stroke: #2ca02c"/>
     <use xlink:href="#m4768366a7a" x="201.797558" y="46.671481" style="fill: #2ca02c; stroke: #2ca02c"/>
     <use xlink:href="#m4768366a7a" x="180.433416" y="45.148825" style="fill: #2ca02c; stroke: #2ca02c"/>
     <use xlink:href="#m4768366a7a" x="188.987639" y="46.770311" style="fill: #2ca02c; stroke: #2ca02c"/>
     <use xlink:href="#m4768366a7a" x="181.550222" y="42.901612" style="fill: #2ca02c; stroke: #2ca02c"/>
     <use xlink:href="#m4768366a7a" x="179.292688" y="43.955316" style="fill: #2ca02c; stroke: #2ca02c"/>
     <use xlink:href="#m4768366a7a" x="195.161807" y="46.822508" style="fill: #2ca02c; stroke: #2ca02c"/>
     <use xlink:href="#m4768366a7a" x="176.571031" y="49.64032" style="fill: #2ca02c; stroke: #2ca02c"/>
     <use xlink:href="#m4768366a7a" x="184.908268" y="38.229055" style="fill: #2ca02c; stroke: #2ca02c"/>
     <use xlink:href="#m4768366a7a" x="190.261158" y="43.778651" style="fill: #2ca02c; stroke: #2ca02c"/>
     <use xlink:href="#m4768366a7a" x="184.080522" y="45.18323" style="fill: #2ca02c; stroke: #2ca02c"/>
     <use xlink:href="#m4768366a7a" x="185.608922" y="46.128662" style="fill: #2ca02c; stroke: #2ca02c"/>
     <use xlink:href="#m4768366a7a" x="182.350261" y="46.178252" style="fill: #2ca02c; stroke: #2ca02c"/>
     <use xlink:href="#m4768366a7a" x="190.270218" y="37.321374" style="fill: #2ca02c; stroke: #2ca02c"/>
     <use xlink:href="#m4768366a7a" x="190.234489" y="51.445939" style="fill: #2ca02c; stroke: #2ca02c"/>
     <use xlink:href="#m4768366a7a" x="188.888748" y="50.646689" style="fill: #2ca02c; stroke: #2ca02c"/>
     <use xlink:href="#m4768366a7a" x="191.50182" y="53.22125" style="fill: #2ca02c; stroke: #2ca02c"/>
     <use xlink:href="#m4768366a7a" x="180.142933" y="45.627422" style="fill: #2ca02c; stroke: #2ca02c"/>
     <use xlink:href="#m4768366a7a" x="187.806541" y="45.694746" style="fill: #2ca02c; stroke: #2ca02c"/>
     <use xlink:href="#m4768366a7a" x="186.929553" y="48.349244" style="fill: #2ca02c; stroke: #2ca02c"/>
     <use xlink:href="#m4768366a7a" x="186.352654" y="42.893948" style="fill: #2ca02c; stroke: #2ca02c"/>
     <use xlink:href="#m4768366a7a" x="187.592381" y="45.277466" style="fill: #2ca02c; stroke: #2ca02c"/>
     <use xlink:href="#m4768366a7a" x="179.654331" y="45.470999" style="fill: #2ca02c; stroke: #2ca02c"/>
     <use xlink:href="#m4768366a7a" x="194.437963" y="44.807927" style="fill: #2ca02c; stroke: #2ca02c"/>
     <use xlink:href="#m4768366a7a" x="198.464341" y="47.764514" style="fill: #2ca02c; stroke: #2ca02c"/>
     <use xlink:href="#m4768366a7a" x="189.357222" y="47.939833" style="fill: #2ca02c; stroke: #2ca02c"/>
     <use xlink:href="#m4768366a7a" x="188.045127" y="46.988991" style="fill: #2ca02c; stroke: #2ca02c"/>
     <use xlink:href="#m4768366a7a" x="190.266062" y="46.767574" style="fill: #2ca02c; stroke: #2ca02c"/>
     <use xlink:href="#m4768366a7a" x="192.118594" y="48.156123" style="fill: #2ca02c; stroke: #2ca02c"/>
     <use xlink:href="#m4768366a7a" x="190.631008" y="44.736497" style="fill: #2ca02c; stroke: #2ca02c"/>
     <use xlink:href="#m4768366a7a" x="202.245877" y="43.573483" style="fill: #2ca02c; stroke: #2ca02c"/>
     <use xlink:href="#m4768366a7a" x="189.459905" y="40.053367" style="fill: #2ca02c; stroke: #2ca02c"/>
     <use xlink:href="#m4768366a7a" x="178.541437" y="47.43382" style="fill: #2ca02c; stroke: #2ca02c"/>
     <use xlink:href="#m4768366a7a" x="183.073777" y="49.038589" style="fill: #2ca02c; stroke: #2ca02c"/>
     <use xlink:href="#m4768366a7a" x="180.606073" y="41.75163" style="fill: #2ca02c; stroke: #2ca02c"/>
     <use xlink:href="#m4768366a7a" x="194.81225" y="51.296585" style="fill: #2ca02c; stroke: #2ca02c"/>
     <use xlink:href="#m4768366a7a" x="189.179625" y="45.20366" style="fill: #2ca02c; stroke: #2ca02c"/>
     <use xlink:href="#m4768366a7a" x="191.732702" y="44.419142" style="fill: #2ca02c; stroke: #2ca02c"/>
     <use xlink:href="#m4768366a7a" x="185.189582" y="48.67844" style="fill: #2ca02c; stroke: #2ca02c"/>
     <use xlink:href="#m4768366a7a" x="181.175406" y="43.154262" style="fill: #2ca02c; stroke: #2ca02c"/>
     <use xlink:href="#m4768366a7a" x="193.988539" y="46.658182" style="fill: #2ca02c; stroke: #2ca02c"/>
     <use xlink:href="#m4768366a7a" x="182.46133" y="41.301627" style="fill: #2ca02c; stroke: #2ca02c"/>
     <use xlink:href="#m4768366a7a" x="187.781277" y="43.713403" style="fill: #2ca02c; stroke: #2ca02c"/>
     <use xlink:href="#m4768366a7a" x="190.29055" y="45.388119" style="fill: #2ca02c; stroke: #2ca02c"/>
     <use xlink:href="#m4768366a7a" x="193.013872" y="50.547101" style="fill: #2ca02c; stroke: #2ca02c"/>
     <use xlink:href="#m4768366a7a" x="182.058247" y="43.181324" style="fill: #2ca02c; stroke: #2ca02c"/>
     <use xlink:href="#m4768366a7a" x="192.308736" y="48.23999" style="fill: #2ca02c; stroke: #2ca02c"/>
     <use xlink:href="#m4768366a7a" x="178.975954" y="51.283049" style="fill: #2ca02c; stroke: #2ca02c"/>
     <use xlink:href="#m4768366a7a" x="179.932966" y="48.23786" style="fill: #2ca02c; stroke: #2ca02c"/>
     <use xlink:href="#m4768366a7a" x="193.912219" y="37.654007" style="fill: #2ca02c; stroke: #2ca02c"/>
     <use xlink:href="#m4768366a7a" x="181.130565" y="46.853329" style="fill: #2ca02c; stroke: #2ca02c"/>
     <use xlink:href="#m4768366a7a" x="174.107412" y="42.788303" style="fill: #2ca02c; stroke: #2ca02c"/>
     <use xlink:href="#m4768366a7a" x="190.379547" y="50.254726" style="fill: #2ca02c; stroke: #2ca02c"/>
     <use xlink:href="#m4768366a7a" x="196.975986" y="42.336731" style="fill: #2ca02c; stroke: #2ca02c"/>
     <use xlink:href="#m4768366a7a" x="192.438232" y="45.553488" style="fill: #2ca02c; stroke: #2ca02c"/>
     <use xlink:href="#m4768366a7a" x="192.177053" y="44.37907" style="fill: #2ca02c; stroke: #2ca02c"/>
     <use xlink:href="#m4768366a7a" x="183.815698" y="43.885215" style="fill: #2ca02c; stroke: #2ca02c"/>
     <use xlink:href="#m4768366a7a" x="189.900736" y="43.115381" style="fill: #2ca02c; stroke: #2ca02c"/>
     <use xlink:href="#m4768366a7a" x="192.726182" y="43.442998" style="fill: #2ca02c; stroke: #2ca02c"/>
     <use xlink:href="#m4768366a7a" x="182.311465" y="50.904992" style="fill: #2ca02c; stroke: #2ca02c"/>
     <use xlink:href="#m4768366a7a" x="188.478912" y="45.213871" style="fill: #2ca02c; stroke: #2ca02c"/>
     <use xlink:href="#m4768366a7a" x="185.14917" y="42.004059" style="fill: #2ca02c; stroke: #2ca02c"/>
     <use xlink:href="#m4768366a7a" x="185.64098" y="43.002639" style="fill: #2ca02c; stroke: #2ca02c"/>
     <use xlink:href="#m4768366a7a" x="193.743814" y="49.987947" style="fill: #2ca02c; stroke: #2ca02c"/>
     <use xlink:href="#m4768366a7a" x="194.139102" y="45.281072" style="fill: #2ca02c; stroke: #2ca02c"/>
     <use xlink:href="#m4768366a7a" x="177.472777" y="47.768934" style="fill: #2ca02c; stroke: #2ca02c"/>
     <use xlink:href="#m4768366a7a" x="185.543197" y="43.944174" style="fill: #2ca02c; stroke: #2ca02c"/>
     <use xlink:href="#m4768366a7a" x="186.639549" y="49.791943" style="fill: #2ca02c; stroke: #2ca02c"/>
     <use xlink:href="#m4768366a7a" x="190.470951" y="44.860104" style="fill: #2ca02c; stroke: #2ca02c"/>
     <use xlink:href="#m4768366a7a" x="188.170355" y="48.323954" style="fill: #2ca02c; stroke: #2ca02c"/>
     <use xlink:href="#m4768366a7a" x="182.787878" y="46.817778" style="fill: #2ca02c; stroke: #2ca02c"/>
     <use xlink:href="#m4768366a7a" x="194.111079" y="48.688139" style="fill: #2ca02c; stroke: #2ca02c"/>
     <use xlink:href="#m4768366a7a" x="192.206054" y="44.016427" style="fill: #2ca02c; stroke: #2ca02c"/>
     <use xlink:href="#m4768366a7a" x="182.263323" y="49.960027" style="fill: #2ca02c; stroke: #2ca02c"/>
     <use xlink:href="#m4768366a7a" x="196.48694" y="44.617308" style="fill: #2ca02c; stroke: #2ca02c"/>
     <use xlink:href="#m4768366a7a" x="181.853111" y="49.100961" style="fill: #2ca02c; stroke: #2ca02c"/>
     <use xlink:href="#m4768366a7a" x="184.211733" y="50.47166" style="fill: #2ca02c; stroke: #2ca02c"/>
    </g>
   </g>
   <g id="matplotlib.axis_1">
    <g id="xtick_1">
     <g id="line2d_1">
      <path d="M 174.107412 102.04 
L 174.107412 28.32 
" clip-path="url(#p2a073b7b03)" style="fill: none; stroke: #b0b0b0; stroke-width: 0.8; stroke-linecap: square"/>
     </g>
     <g id="line2d_2">
      <defs>
       <path id="m4f5dd68e95" d="M 0 0 
L 0 3.5 
" style="stroke: #000000; stroke-width: 0.8"/>
      </defs>
      <g>
       <use xlink:href="#m4f5dd68e95" x="174.107412" y="102.04" style="stroke: #000000; stroke-width: 0.8"/>
      </g>
     </g>
     <g id="text_1">
      <!-- 0.0 -->
      <g transform="translate(166.155849 116.638437) scale(0.1 -0.1)">
       <defs>
        <path id="DejaVuSans-30" d="M 2034 4250 
Q 1547 4250 1301 3770 
Q 1056 3291 1056 2328 
Q 1056 1369 1301 889 
Q 1547 409 2034 409 
Q 2525 409 2770 889 
Q 3016 1369 3016 2328 
Q 3016 3291 2770 3770 
Q 2525 4250 2034 4250 
z
M 2034 4750 
Q 2819 4750 3233 4129 
Q 3647 3509 3647 2328 
Q 3647 1150 3233 529 
Q 2819 -91 2034 -91 
Q 1250 -91 836 529 
Q 422 1150 422 2328 
Q 422 3509 836 4129 
Q 1250 4750 2034 4750 
z
" transform="scale(0.015625)"/>
        <path id="DejaVuSans-2e" d="M 684 794 
L 1344 794 
L 1344 0 
L 684 0 
L 684 794 
z
" transform="scale(0.015625)"/>
       </defs>
       <use xlink:href="#DejaVuSans-30"/>
       <use xlink:href="#DejaVuSans-2e" x="63.623047"/>
       <use xlink:href="#DejaVuSans-30" x="95.410156"/>
      </g>
     </g>
    </g>
    <g id="xtick_2">
     <g id="line2d_3">
      <path d="M 221.623678 102.04 
L 221.623678 28.32 
" clip-path="url(#p2a073b7b03)" style="fill: none; stroke: #b0b0b0; stroke-width: 0.8; stroke-linecap: square"/>
     </g>
     <g id="line2d_4">
      <g>
       <use xlink:href="#m4f5dd68e95" x="221.623678" y="102.04" style="stroke: #000000; stroke-width: 0.8"/>
      </g>
     </g>
     <g id="text_2">
      <!-- 0.5 -->
      <g transform="translate(213.672115 116.638437) scale(0.1 -0.1)">
       <defs>
        <path id="DejaVuSans-35" d="M 691 4666 
L 3169 4666 
L 3169 4134 
L 1269 4134 
L 1269 2991 
Q 1406 3038 1543 3061 
Q 1681 3084 1819 3084 
Q 2600 3084 3056 2656 
Q 3513 2228 3513 1497 
Q 3513 744 3044 326 
Q 2575 -91 1722 -91 
Q 1428 -91 1123 -41 
Q 819 9 494 109 
L 494 744 
Q 775 591 1075 516 
Q 1375 441 1709 441 
Q 2250 441 2565 725 
Q 2881 1009 2881 1497 
Q 2881 1984 2565 2268 
Q 2250 2553 1709 2553 
Q 1456 2553 1204 2497 
Q 953 2441 691 2322 
L 691 4666 
z
" transform="scale(0.015625)"/>
       </defs>
       <use xlink:href="#DejaVuSans-30"/>
       <use xlink:href="#DejaVuSans-2e" x="63.623047"/>
       <use xlink:href="#DejaVuSans-35" x="95.410156"/>
      </g>
     </g>
    </g>
    <g id="xtick_3">
     <g id="line2d_5">
      <path d="M 269.139944 102.04 
L 269.139944 28.32 
" clip-path="url(#p2a073b7b03)" style="fill: none; stroke: #b0b0b0; stroke-width: 0.8; stroke-linecap: square"/>
     </g>
     <g id="line2d_6">
      <g>
       <use xlink:href="#m4f5dd68e95" x="269.139944" y="102.04" style="stroke: #000000; stroke-width: 0.8"/>
      </g>
     </g>
     <g id="text_3">
      <!-- 1.0 -->
      <g transform="translate(261.188381 116.638437) scale(0.1 -0.1)">
       <defs>
        <path id="DejaVuSans-31" d="M 794 531 
L 1825 531 
L 1825 4091 
L 703 3866 
L 703 4441 
L 1819 4666 
L 2450 4666 
L 2450 531 
L 3481 531 
L 3481 0 
L 794 0 
L 794 531 
z
" transform="scale(0.015625)"/>
       </defs>
       <use xlink:href="#DejaVuSans-31"/>
       <use xlink:href="#DejaVuSans-2e" x="63.623047"/>
       <use xlink:href="#DejaVuSans-30" x="95.410156"/>
      </g>
     </g>
    </g>
    <g id="text_4">
     <!-- X -->
     <g transform="translate(218.198678 130.316563) scale(0.1 -0.1)">
      <defs>
       <path id="DejaVuSans-58" d="M 403 4666 
L 1081 4666 
L 2241 2931 
L 3406 4666 
L 4084 4666 
L 2584 2425 
L 4184 0 
L 3506 0 
L 2194 1984 
L 872 0 
L 191 0 
L 1856 2491 
L 403 4666 
z
" transform="scale(0.015625)"/>
      </defs>
      <use xlink:href="#DejaVuSans-58"/>
     </g>
    </g>
   </g>
   <g id="matplotlib.axis_2">
    <g id="ytick_1">
     <g id="line2d_7">
      <path d="M 169.355785 98.689091 
L 273.89157 98.689091 
" clip-path="url(#p2a073b7b03)" style="fill: none; stroke: #b0b0b0; stroke-width: 0.8; stroke-linecap: square"/>
     </g>
     <g id="line2d_8">
      <defs>
       <path id="md191e0d36c" d="M 0 0 
L -3.5 0 
" style="stroke: #000000; stroke-width: 0.8"/>
      </defs>
      <g>
       <use xlink:href="#md191e0d36c" x="169.355785" y="98.689091" style="stroke: #000000; stroke-width: 0.8"/>
      </g>
     </g>
     <g id="text_5">
      <!-- 0.0 -->
      <g transform="translate(146.45266 102.48831) scale(0.1 -0.1)">
       <use xlink:href="#DejaVuSans-30"/>
       <use xlink:href="#DejaVuSans-2e" x="63.623047"/>
       <use xlink:href="#DejaVuSans-30" x="95.410156"/>
      </g>
     </g>
    </g>
    <g id="ytick_2">
     <g id="line2d_9">
      <path d="M 169.355785 65.18 
L 273.89157 65.18 
" clip-path="url(#p2a073b7b03)" style="fill: none; stroke: #b0b0b0; stroke-width: 0.8; stroke-linecap: square"/>
     </g>
     <g id="line2d_10">
      <g>
       <use xlink:href="#md191e0d36c" x="169.355785" y="65.18" style="stroke: #000000; stroke-width: 0.8"/>
      </g>
     </g>
     <g id="text_6">
      <!-- 0.5 -->
      <g transform="translate(146.45266 68.979219) scale(0.1 -0.1)">
       <use xlink:href="#DejaVuSans-30"/>
       <use xlink:href="#DejaVuSans-2e" x="63.623047"/>
       <use xlink:href="#DejaVuSans-35" x="95.410156"/>
      </g>
     </g>
    </g>
    <g id="ytick_3">
     <g id="line2d_11">
      <path d="M 169.355785 31.670909 
L 273.89157 31.670909 
" clip-path="url(#p2a073b7b03)" style="fill: none; stroke: #b0b0b0; stroke-width: 0.8; stroke-linecap: square"/>
     </g>
     <g id="line2d_12">
      <g>
       <use xlink:href="#md191e0d36c" x="169.355785" y="31.670909" style="stroke: #000000; stroke-width: 0.8"/>
      </g>
     </g>
     <g id="text_7">
      <!-- 1.0 -->
      <g transform="translate(146.45266 35.470128) scale(0.1 -0.1)">
       <use xlink:href="#DejaVuSans-31"/>
       <use xlink:href="#DejaVuSans-2e" x="63.623047"/>
       <use xlink:href="#DejaVuSans-30" x="95.410156"/>
      </g>
     </g>
    </g>
    <g id="text_8">
     <!-- Y -->
     <g transform="translate(140.372973 68.233906) rotate(-90) scale(0.1 -0.1)">
      <defs>
       <path id="DejaVuSans-59" d="M -13 4666 
L 666 4666 
L 1959 2747 
L 3244 4666 
L 3922 4666 
L 2272 2222 
L 2272 0 
L 1638 0 
L 1638 2222 
L -13 4666 
z
" transform="scale(0.015625)"/>
      </defs>
      <use xlink:href="#DejaVuSans-59"/>
     </g>
    </g>
   </g>
   <g id="patch_3">
    <path d="M 169.355785 102.04 
L 169.355785 28.32 
" style="fill: none; stroke: #000000; stroke-width: 0.8; stroke-linejoin: miter; stroke-linecap: square"/>
   </g>
   <g id="patch_4">
    <path d="M 273.89157 102.04 
L 273.89157 28.32 
" style="fill: none; stroke: #000000; stroke-width: 0.8; stroke-linejoin: miter; stroke-linecap: square"/>
   </g>
   <g id="patch_5">
    <path d="M 169.355785 102.04 
L 273.89157 102.04 
" style="fill: none; stroke: #000000; stroke-width: 0.8; stroke-linejoin: miter; stroke-linecap: square"/>
   </g>
   <g id="patch_6">
    <path d="M 169.355785 28.32 
L 273.89157 28.32 
" style="fill: none; stroke: #000000; stroke-width: 0.8; stroke-linejoin: miter; stroke-linecap: square"/>
   </g>
   <g id="text_9">
    <!-- 2D ($SIL$=0.80) -->
    <g transform="translate(179.443678 22.32) scale(0.12 -0.12)">
     <defs>
      <path id="DejaVuSans-32" d="M 1228 531 
L 3431 531 
L 3431 0 
L 469 0 
L 469 531 
Q 828 903 1448 1529 
Q 2069 2156 2228 2338 
Q 2531 2678 2651 2914 
Q 2772 3150 2772 3378 
Q 2772 3750 2511 3984 
Q 2250 4219 1831 4219 
Q 1534 4219 1204 4116 
Q 875 4013 500 3803 
L 500 4441 
Q 881 4594 1212 4672 
Q 1544 4750 1819 4750 
Q 2544 4750 2975 4387 
Q 3406 4025 3406 3419 
Q 3406 3131 3298 2873 
Q 3191 2616 2906 2266 
Q 2828 2175 2409 1742 
Q 1991 1309 1228 531 
z
" transform="scale(0.015625)"/>
      <path id="DejaVuSans-44" d="M 1259 4147 
L 1259 519 
L 2022 519 
Q 2988 519 3436 956 
Q 3884 1394 3884 2338 
Q 3884 3275 3436 3711 
Q 2988 4147 2022 4147 
L 1259 4147 
z
M 628 4666 
L 1925 4666 
Q 3281 4666 3915 4102 
Q 4550 3538 4550 2338 
Q 4550 1131 3912 565 
Q 3275 0 1925 0 
L 628 0 
L 628 4666 
z
" transform="scale(0.015625)"/>
      <path id="DejaVuSans-20" transform="scale(0.015625)"/>
      <path id="DejaVuSans-28" d="M 1984 4856 
Q 1566 4138 1362 3434 
Q 1159 2731 1159 2009 
Q 1159 1288 1364 580 
Q 1569 -128 1984 -844 
L 1484 -844 
Q 1016 -109 783 600 
Q 550 1309 550 2009 
Q 550 2706 781 3412 
Q 1013 4119 1484 4856 
L 1984 4856 
z
" transform="scale(0.015625)"/>
      <path id="DejaVuSans-Oblique-53" d="M 3859 4513 
L 3738 3897 
Q 3422 4066 3111 4152 
Q 2800 4238 2509 4238 
Q 1944 4238 1609 3991 
Q 1275 3744 1275 3334 
Q 1275 3109 1398 2989 
Q 1522 2869 2034 2731 
L 2413 2638 
Q 3053 2472 3303 2217 
Q 3553 1963 3553 1503 
Q 3553 797 2998 353 
Q 2444 -91 1538 -91 
Q 1166 -91 791 -17 
Q 416 56 38 206 
L 166 856 
Q 513 641 861 531 
Q 1209 422 1556 422 
Q 2147 422 2503 684 
Q 2859 947 2859 1369 
Q 2859 1650 2717 1795 
Q 2575 1941 2106 2059 
L 1728 2156 
Q 1081 2325 845 2545 
Q 609 2766 609 3163 
Q 609 3859 1145 4304 
Q 1681 4750 2541 4750 
Q 2875 4750 3203 4690 
Q 3531 4631 3859 4513 
z
" transform="scale(0.015625)"/>
      <path id="DejaVuSans-Oblique-49" d="M 1081 4666 
L 1716 4666 
L 806 0 
L 172 0 
L 1081 4666 
z
" transform="scale(0.015625)"/>
      <path id="DejaVuSans-Oblique-4c" d="M 1075 4666 
L 1709 4666 
L 909 525 
L 3181 525 
L 3078 0 
L 172 0 
L 1075 4666 
z
" transform="scale(0.015625)"/>
      <path id="DejaVuSans-3d" d="M 678 2906 
L 4684 2906 
L 4684 2381 
L 678 2381 
L 678 2906 
z
M 678 1631 
L 4684 1631 
L 4684 1100 
L 678 1100 
L 678 1631 
z
" transform="scale(0.015625)"/>
      <path id="DejaVuSans-38" d="M 2034 2216 
Q 1584 2216 1326 1975 
Q 1069 1734 1069 1313 
Q 1069 891 1326 650 
Q 1584 409 2034 409 
Q 2484 409 2743 651 
Q 3003 894 3003 1313 
Q 3003 1734 2745 1975 
Q 2488 2216 2034 2216 
z
M 1403 2484 
Q 997 2584 770 2862 
Q 544 3141 544 3541 
Q 544 4100 942 4425 
Q 1341 4750 2034 4750 
Q 2731 4750 3128 4425 
Q 3525 4100 3525 3541 
Q 3525 3141 3298 2862 
Q 3072 2584 2669 2484 
Q 3125 2378 3379 2068 
Q 3634 1759 3634 1313 
Q 3634 634 3220 271 
Q 2806 -91 2034 -91 
Q 1263 -91 848 271 
Q 434 634 434 1313 
Q 434 1759 690 2068 
Q 947 2378 1403 2484 
z
M 1172 3481 
Q 1172 3119 1398 2916 
Q 1625 2713 2034 2713 
Q 2441 2713 2670 2916 
Q 2900 3119 2900 3481 
Q 2900 3844 2670 4047 
Q 2441 4250 2034 4250 
Q 1625 4250 1398 4047 
Q 1172 3844 1172 3481 
z
" transform="scale(0.015625)"/>
      <path id="DejaVuSans-29" d="M 513 4856 
L 1013 4856 
Q 1481 4119 1714 3412 
Q 1947 2706 1947 2009 
Q 1947 1309 1714 600 
Q 1481 -109 1013 -844 
L 513 -844 
Q 928 -128 1133 580 
Q 1338 1288 1338 2009 
Q 1338 2731 1133 3434 
Q 928 4138 513 4856 
z
" transform="scale(0.015625)"/>
     </defs>
     <use xlink:href="#DejaVuSans-32" transform="translate(0 0.125)"/>
     <use xlink:href="#DejaVuSans-44" transform="translate(63.623047 0.125)"/>
     <use xlink:href="#DejaVuSans-20" transform="translate(140.625 0.125)"/>
     <use xlink:href="#DejaVuSans-28" transform="translate(172.412109 0.125)"/>
     <use xlink:href="#DejaVuSans-Oblique-53" transform="translate(211.425781 0.125)"/>
     <use xlink:href="#DejaVuSans-Oblique-49" transform="translate(274.902344 0.125)"/>
     <use xlink:href="#DejaVuSans-Oblique-4c" transform="translate(304.394531 0.125)"/>
     <use xlink:href="#DejaVuSans-3d" transform="translate(360.107422 0.125)"/>
     <use xlink:href="#DejaVuSans-30" transform="translate(443.896484 0.125)"/>
     <use xlink:href="#DejaVuSans-2e" transform="translate(507.519531 0.125)"/>
     <use xlink:href="#DejaVuSans-38" transform="translate(536.681641 0.125)"/>
     <use xlink:href="#DejaVuSans-30" transform="translate(600.304688 0.125)"/>
     <use xlink:href="#DejaVuSans-29" transform="translate(663.927734 0.125)"/>
    </g>
   </g>
  </g>
 </g>
 <defs>
  <clipPath id="p2a073b7b03">
   <rect x="169.355785" y="28.32" width="104.535785" height="73.72"/>
  </clipPath>
 </defs>
</svg>
